<?xml version="1.0" encoding="UTF-8" standalone="no"?>
<!-- Generator: Adobe Illustrator 19.1.0, SVG Export Plug-In . SVG Version: 6.00 Build 0)  -->

<svg
   xmlns:dc="http://purl.org/dc/elements/1.1/"
   xmlns:cc="http://creativecommons.org/ns#"
   xmlns:rdf="http://www.w3.org/1999/02/22-rdf-syntax-ns#"
   xmlns:svg="http://www.w3.org/2000/svg"
   xmlns="http://www.w3.org/2000/svg"
   xmlns:sodipodi="http://sodipodi.sourceforge.net/DTD/sodipodi-0.dtd"
   xmlns:inkscape="http://www.inkscape.org/namespaces/inkscape"
   version="1.1"
   id="Calque_1"
   x="0px"
   y="0px"
   width="1001px"
   height="1000px"
   viewBox="451 -450 1001 1000"
   style="enable-background:new 451 -450 1001 1000;"
   xml:space="preserve"
   inkscape:version="0.91 r13725"
   sodipodi:docname="googleplus.svg"><metadata
     id="metadata20"><rdf:RDF><cc:Work
         rdf:about=""><dc:format>image/svg+xml</dc:format><dc:type
           rdf:resource="http://purl.org/dc/dcmitype/StillImage" /></cc:Work></rdf:RDF></metadata><defs
     id="defs18" /><sodipodi:namedview
     pagecolor="#ffffff"
     bordercolor="#666666"
     borderopacity="1"
     objecttolerance="10"
     gridtolerance="10"
     guidetolerance="10"
     inkscape:pageopacity="0"
     inkscape:pageshadow="2"
     inkscape:window-width="640"
     inkscape:window-height="480"
     id="namedview16"
     showgrid="false"
     inkscape:zoom="0.236"
     inkscape:cx="500.5"
     inkscape:cy="500"
     inkscape:window-x="328"
     inkscape:window-y="114"
     inkscape:window-maximized="0"
     inkscape:current-layer="Calque_1" /><style
     type="text/css"
     id="style3">
	.st0{display:none;}
	.st1{display:inline;}
	.st2{fill:#DC4E41;}
</style><g
     id="Calque_2"
     class="st0"><rect
       x="1804"
       y="-1800"
       class="st1"
       width="1001"
       height="1000"
       id="rect6" /></g><g
     id="g8"
     style="fill:#4d4d4d"><g
       id="g10"
       style="fill:#4d4d4d"><path
         class="st2"
         d="M453.3,34.1c2.8-163.3,152.8-306.3,316.1-300.9c78.3-3.6,151.8,30.4,211.7,78.3c-25.6,29.1-52,57.1-80.3,83.3    c-72-49.8-174.5-64-246.6-6.6c-103.1,71.3-107.7,239.6-8.6,316.3c96.4,87.5,278.6,44,305.3-89.9c-60.3-0.9-120.9,0-181.3-1.9    c-0.1-36.1-0.3-72-0.1-108.1c100.9-0.3,201.9-0.4,303,0.3c6,84.7-5.1,175-57.2,245c-78.9,110.9-237.2,143.3-360.7,95.8    C530.6,298.5,442.9,167.6,453.3,34.1z"
         id="path12"
         style="fill:#4d4d4d" /><path
         class="st2"
         d="M1269.4-86.3c30,0,59.9,0,90,0c0.1,30.1,0.3,60.3,0.6,90.5c30.1,0.3,60.3,0.3,90.5,0.6c0,30,0,60.1,0,90    c-30.1,0.3-60.2,0.4-90.5,0.7c-0.3,30.2-0.4,60.3-0.6,90.5c-30.1,0-60.1,0-90.3,0c-0.3-30.1-0.3-60.2-0.6-90.4    c-30.1-0.3-60.3-0.6-90.5-0.9c0-30,0-59.9,0-90c30.1-0.3,60.2-0.4,90.5-0.6C1268.8-26.1,1269.1-56.2,1269.4-86.3z"
         id="path14"
         style="fill:#4d4d4d" /></g></g></svg>